<svg width="640" height="640" viewBox="0 0 640 640" fill="none" xmlns="http://www.w3.org/2000/svg">
<path d="M458.6 12H181.4C87.843 12 12 87.843 12 181.4V458.6C12 552.157 87.843 628 181.4 628H458.6C552.157 628 628 552.157 628 458.6V181.4C628 87.843 552.157 12 458.6 12Z" fill="#021712"/>
<path d="M12.3203 448H64.0002V320H128V256H192V192H320V256H384V192H512V256H576V384H512V512H448V633.92H219.52L162.4 631.36L108.32 617.92L70.2402 593.12L40.9602 562.08L27.6803 537.76L18.8803 514.72L12.3203 494.24V473.92V448Z" fill="#558336"/>
<path d="M60.4805 576H448V640H185.28L113.28 619.52L74.0805 594.88L60.4805 576Z" fill="#B8BD7B"/>
<path d="M464 12H176C85.4253 12 12 85.4253 12 176V464C12 554.575 85.4253 628 176 628H464C554.575 628 628 554.575 628 464V176C628 85.4253 554.575 12 464 12Z" stroke="#ABA264" stroke-width="24"/>
<path d="M512 320H192V384H512V320Z" fill="white"/>
<path d="M512 448H256V512H512V448Z" fill="#994E35"/>
<path d="M512 320H448V384H512V320Z" fill="black"/>
<path d="M320 320H256V384H320V320Z" fill="black"/>
<path d="M128 192H192V128H256V64H320V24H384V64H448V128H512V192H576V256H128V192Z" fill="#B8BD7A"/>
</svg>
